<svg width="38" height="38" viewBox="0 0 38 38" fill="none" xmlns="http://www.w3.org/2000/svg">
<g clip-path="url(#clip0)" filter="url(#filter0_d)">
<path d="M33.3629 11.243H5.85261C5.50748 11.243 5.22736 11.5232 5.22736 11.8683V26.8739C5.22736 28.597 6.62915 30 8.3535 30H30.8619C32.5863 30 33.988 28.597 33.988 26.8739V11.8683C33.9881 11.5231 33.708 11.243 33.3629 11.243ZM32.7376 26.8738C32.7376 27.908 31.8961 28.7495 30.8619 28.7495H8.35356C7.3194 28.7495 6.47786 27.908 6.47786 26.8738V12.4935H32.7376V26.8738Z" fill="white"/>
<path d="M33.9681 5.4571L32.9039 1.41937C32.6588 0.437737 31.656 -0.178723 30.6619 0.0463609L5.46997 6.02356C4.97479 6.1361 4.55587 6.43744 4.28952 6.87014C4.02317 7.30278 3.94439 7.81297 4.06942 8.30816L5.24735 12.9649C5.3174 13.2475 5.57249 13.4363 5.85256 13.4363C5.90256 13.4363 5.95384 13.4313 6.0076 13.4176C6.34147 13.3338 6.54404 12.9936 6.45899 12.6585L6.39024 12.3872L33.5015 6.22742C33.6666 6.18868 33.8104 6.0861 33.898 5.94109C33.9868 5.79601 34.0106 5.62093 33.9681 5.4571ZM6.08397 11.1742L5.28117 8.0043C5.23991 7.83923 5.2674 7.66919 5.35497 7.52412C5.44377 7.38033 5.58381 7.28028 5.75385 7.24024L30.9457 1.26433C30.9907 1.25308 31.0369 1.2481 31.082 1.2481C31.3621 1.2481 31.6209 1.44065 31.6922 1.72951L32.5938 5.14954L6.08397 11.1742Z" fill="white"/>
<path d="M11.1346 11.3081C10.8244 11.1568 10.4518 11.2793 10.2943 11.5882L7.79332 16.59C7.63951 16.8989 7.76454 17.274 8.07344 17.4291C8.16471 17.4741 8.25978 17.4954 8.35356 17.4954C8.5824 17.4954 8.80373 17.3691 8.91375 17.149L11.4147 12.1472C11.5685 11.8382 11.4434 11.4631 11.1346 11.3081Z" fill="white"/>
<path d="M17.3857 11.3081C17.0768 11.1568 16.7017 11.2793 16.5466 11.5882L14.0456 16.59C13.8918 16.8989 14.0169 17.274 14.3258 17.4291C14.417 17.4741 14.5121 17.4954 14.6059 17.4954C14.8347 17.4954 15.0561 17.3691 15.1648 17.149L17.6658 12.1472C17.8195 11.8382 17.6945 11.4631 17.3857 11.3081Z" fill="white"/>
<path d="M23.6379 11.3081C23.3303 11.1568 22.9552 11.2793 22.7988 11.5882L20.2979 16.59C20.1441 16.8989 20.2691 17.274 20.578 17.4291C20.6693 17.4741 20.7644 17.4954 20.8581 17.4954C21.087 17.4954 21.3083 17.3691 21.4171 17.149L23.918 12.1472C24.0718 11.8382 23.9468 11.4631 23.6379 11.3081Z" fill="white"/>
<path d="M29.8903 11.3081C29.5802 11.1568 29.2076 11.2793 29.0512 11.5882L26.5503 16.59C26.3965 16.8989 26.5215 17.274 26.8304 17.4291C26.9217 17.4741 27.0167 17.4954 27.1105 17.4954C27.3394 17.4954 27.5607 17.3691 27.6695 17.149L30.1704 12.1472C30.3242 11.8382 30.1992 11.4631 29.8903 11.3081Z" fill="white"/>
<path d="M33.3629 16.2449H5.85261C5.50748 16.2449 5.22736 16.525 5.22736 16.8701C5.22736 17.2153 5.50748 17.4954 5.85261 17.4954H33.3629C33.7092 17.4954 33.9881 17.2153 33.9881 16.8701C33.9881 16.525 33.708 16.2449 33.3629 16.2449Z" fill="white"/>
<path d="M11.8986 10.1514L7.592 5.84478C7.34816 5.60094 6.95175 5.60094 6.7079 5.84478C6.46406 6.08862 6.46406 6.48503 6.7079 6.72887L11.0145 11.0367C11.1371 11.158 11.2971 11.2193 11.4572 11.2193C11.6172 11.2193 11.7773 11.158 11.8986 11.0355C12.1424 10.7916 12.1424 10.3952 11.8986 10.1514Z" fill="white"/>
<path d="M18.0158 8.76206L13.7055 4.45546C13.4617 4.21162 13.0653 4.21162 12.8214 4.45546C12.5776 4.6993 12.5776 5.09572 12.8214 5.33956L17.1305 9.64616C17.2531 9.76743 17.4131 9.82875 17.5732 9.82875C17.7333 9.82875 17.8933 9.76749 18.0159 9.64616C18.2597 9.40232 18.2597 9.0059 18.0158 8.76206Z" fill="white"/>
<path d="M24.1282 7.37282L19.8253 3.06499C19.5815 2.82115 19.1851 2.82115 18.9412 3.06499C18.6974 3.30883 18.6974 3.70525 18.9412 3.94909L23.2441 8.25692C23.3667 8.37819 23.5267 8.43951 23.6868 8.43951C23.8468 8.43951 24.0069 8.37948 24.1282 8.25692C24.372 8.01308 24.372 7.61666 24.1282 7.37282Z" fill="white"/>
<path d="M30.2379 5.98482L25.9338 1.67699C25.69 1.43315 25.2935 1.43315 25.0497 1.67699C24.8059 1.92083 24.8059 2.31725 25.0497 2.56109L29.3538 6.86892C29.4763 6.99019 29.6364 7.05151 29.7964 7.05151C29.9565 7.05151 30.1165 6.99025 30.2379 6.86892C30.4818 6.62508 30.4818 6.22866 30.2379 5.98482Z" fill="white"/>
</g>
<defs>
<filter id="filter0_d" x="0" y="0" width="38" height="38" filterUnits="userSpaceOnUse" color-interpolation-filters="sRGB">
<feFlood flood-opacity="0" result="BackgroundImageFix"/>
<feColorMatrix in="SourceAlpha" type="matrix" values="0 0 0 0 0 0 0 0 0 0 0 0 0 0 0 0 0 0 127 0" result="hardAlpha"/>
<feOffset dy="4"/>
<feGaussianBlur stdDeviation="2"/>
<feComposite in2="hardAlpha" operator="out"/>
<feColorMatrix type="matrix" values="0 0 0 0 0 0 0 0 0 0 0 0 0 0 0 0 0 0 0.25 0"/>
<feBlend mode="normal" in2="BackgroundImageFix" result="effect1_dropShadow"/>
<feBlend mode="normal" in="SourceGraphic" in2="effect1_dropShadow" result="shape"/>
</filter>
<clipPath id="clip0">
<rect width="30" height="30" fill="white" transform="translate(4)"/>
</clipPath>
</defs>
</svg>
